<?xml version="1.0" encoding="UTF-8"?>
<!DOCTYPE svg PUBLIC "-//W3C//DTD SVG 1.1//EN" "http://www.w3.org/Graphics/SVG/1.1/DTD/svg11.dtd">
<!-- Creator: CorelDRAW 2021 (64-Bit) -->
<svg xmlns="http://www.w3.org/2000/svg" xml:space="preserve" width="8.9999mm" height="9.2208mm" version="1.1" style="shape-rendering:geometricPrecision; text-rendering:geometricPrecision; image-rendering:optimizeQuality; fill-rule:evenodd; clip-rule:evenodd"
viewBox="0 0 7.13 7.31"
 xmlns:xlink="http://www.w3.org/1999/xlink"
 xmlns:xodm="http://www.corel.com/coreldraw/odm/2003">
 <defs>
  <style type="text/css">
   <![CDATA[
    .fil0 {fill:#2eca8b}
   ]]>
  </style>
 </defs>
 <g id="Layer_x0020_1">
  <metadata id="CorelCorpID_0Corel-Layer"/>
  <g id="_2176740843744">
   <path class="fil0" d="M1.82 6.14c0.07,-0.04 0.21,-0.19 0.27,-0.25l1.76 -1.76c0.63,-0.63 1.41,-1.38 2.01,-2.01 -0.13,-0.11 -0.79,-0.8 -0.86,-0.85l-3.52 3.52c-0.09,0.09 -0.46,0.44 -0.5,0.52l0.85 0.84z"/>
   <path class="fil0" d="M4.58 3.89c-0.08,0.03 -0.85,0.81 -0.87,0.86 0.11,0.1 1.19,1.18 1.2,1.21 0.01,0.04 -0.02,0.19 -0.01,0.26 0.07,0.72 0.63,1.17 1.31,1.07 -0.02,-0.05 -0.61,-0.63 -0.66,-0.67l0.17 -0.74c0.16,-0.04 0.31,-0.07 0.46,-0.1 0.27,-0.07 0.22,-0.09 0.38,0.07 0.1,0.1 0.47,0.5 0.56,0.54l0.02 -0.12c0.04,-0.56 -0.33,-1.03 -0.82,-1.16 -0.09,-0.03 -0.17,-0.03 -0.28,-0.03 -0.31,0 -0.17,0.07 -0.4,-0.16l-1.04 -1.04z"/>
   <path class="fil0" d="M0.39 0.74c0.03,-0.08 0.1,-0.14 0.17,-0.17 0.62,-0.31 1.08,0.41 0.68,0.83 -0.42,0.45 -1.2,-0.08 -0.85,-0.66zm2 2.67c0.15,-0.13 0.27,-0.27 0.42,-0.42 0.09,-0.08 0.38,-0.36 0.42,-0.44l-1.48 -1.49c-0.06,-0.05 -0.05,-0.03 -0.07,-0.12 -0.07,-0.52 -0.5,-0.83 -0.98,-0.75 -0.9,0.14 -1,1.51 0.05,1.66 0.11,0.02 0.14,0.08 0.21,0.15 0.09,0.09 1.34,1.37 1.42,1.4z"/>
   <path class="fil0" d="M0.56 0.57c-0.04,0.04 -0.06,0.05 -0.09,0.08 -0.03,0.03 -0.04,0.05 -0.08,0.09 -0.35,0.58 0.43,1.11 0.85,0.66 0.4,-0.43 -0.06,-1.15 -0.68,-0.83z"/>
   <path class="fil0" d="M0.74 5.54c-0.05,0.07 -0.1,0.24 -0.13,0.32 -0.13,0.35 -0.19,0.32 -0.05,0.45 0.04,0.04 0.07,0.07 0.11,0.11 0.07,0.07 0.15,0.17 0.23,0.22 0.07,-0.01 0.65,-0.24 0.69,-0.26 -0.07,-0.08 -0.79,-0.81 -0.85,-0.84z"/>
   <path class="fil0" d="M5.23 1.04l0.85 0.85 0.21 -0.2c-0.07,-0.11 -0.32,-0.33 -0.42,-0.43 -0.14,-0.14 -0.3,-0.29 -0.42,-0.43 -0.06,0.04 -0.18,0.15 -0.21,0.21z"/>
   <polygon class="fil0" points="0.6,6.81 0.31,6.53 0.2,6.92 "/>
   <polygon class="fil0" points="5.67,0.59 6.3,0 7.13,0.77 6.52,1.44 "/>
  </g>
 </g>
</svg>
