<?xml version="1.0" encoding="UTF-8"?>
<!DOCTYPE svg PUBLIC "-//W3C//DTD SVG 1.1//EN" "http://www.w3.org/Graphics/SVG/1.1/DTD/svg11.dtd">
<!-- Creator: CorelDRAW 2021 (64-Bit) -->
<svg xmlns="http://www.w3.org/2000/svg" xml:space="preserve" width="7.1836mm" height="12.3594mm" version="1.1" style="shape-rendering:geometricPrecision; text-rendering:geometricPrecision; image-rendering:optimizeQuality; fill-rule:evenodd; clip-rule:evenodd"
viewBox="0 0 4.55 7.82"
 xmlns:xlink="http://www.w3.org/1999/xlink"
 xmlns:xodm="http://www.corel.com/coreldraw/odm/2003">
 <defs>
  <style type="text/css">
   <![CDATA[
    .str0 {stroke:#2eca8b;stroke-width:0.13;stroke-miterlimit:22.9256}
    .fil0 {fill:#2eca8b}
   ]]>
  </style>
 </defs>
 <g id="Layer_x0020_1">
  <metadata id="CorelCorpID_0Corel-Layer"/>
  <g id="_2176659607328">
   <path class="fil0 str0" d="M0.32 6.51l3.89 0c0.29,1.27 -1.03,1.02 -1.95,1.02 -0.99,0 -2.16,0.27 -1.95,-1.02zm-0.01 -4.93l3.93 -0 -0 4.72 -3.92 -0 -0.01 -4.72zm3.92 -0.22l-3.91 -0c-0.11,-1.3 0.67,-1.06 1.95,-1.06 1.3,0 2.06,-0.26 1.96,1.06zm-3.41 -1.26c-0.97,0.18 -0.73,1.28 -0.73,2.25 0,1.01 0,2.01 0,3.02 0,0.92 -0.22,2.15 0.65,2.36 0.22,0.05 2.75,0.05 3,0.01 0.95,-0.17 0.72,-1.29 0.72,-2.26 0,-1.01 0,-2.01 0,-3.02 0,-0.93 0.22,-2.16 -0.66,-2.35 -0.22,-0.05 -2.75,-0.05 -2.97,-0.01z"/>
   <polygon class="fil0 str0" points="1.68,0.94 2.87,0.96 2.86,0.7 1.69,0.69 "/>
   <path class="fil0 str0" d="M2.5 6.89c-0.12,-0.07 -0.14,-0.15 -0.33,-0.09 -0.12,0.04 -0.19,0.19 -0.11,0.34 0.09,0.18 0.5,0.23 0.44,-0.26z"/>
  </g>
 </g>
</svg>
