<svg xmlns="http://www.w3.org/2000/svg" width="75" height="80" fill="none"  xmlns:v="https://vecta.io/nano"><g fill="#046380"><path d="M9.723 58.833H7.472l-3.37-3.893v3.893H1.734v-8.02h2.251l3.37 3.952v-3.952h2.367v8.02zm3.965-6.877h-2.321v-1.574h2.321v1.574zm0 6.877h-2.321v-6.155h2.321v6.155zm8.408-7.309c0 .474-.119.839-.357 1.096s-.592.447-1.066.571a1.93 1.93 0 0 1 .529.599 1.47 1.47 0 0 1 .194.73c0 .653-.247 1.146-.742 1.48s-1.109.501-1.847.501h-.886c-.49 0-.735.113-.735.338 0 .109.054.196.163.261s.299.1.572.1h2.099c.684 0 1.201.179 1.551.536s.525.835.525 1.434a1.88 1.88 0 0 1-.35 1.142c-.233.319-.548.559-.945.723s-.828.245-1.294.245h-3.429c-.28 0-.539-.066-.777-.198a1.52 1.52 0 0 1-.564-.541c-.14-.23-.21-.485-.21-.765 0-.303.093-.577.28-.821s.42-.431.7-.555c-.187-.132-.334-.291-.443-.478a1.18 1.18 0 0 1-.163-.606c0-.303.113-.577.338-.823s.505-.409.84-.494c-.303-.194-.544-.418-.723-.671s-.268-.517-.268-.797c0-.715.289-1.226.868-1.534s1.348-.459 2.304-.459c.42 0 .758.023 1.015.07.381-.241.627-.461.739-.66s.17-.339.17-.424h1.913zm-3.86 2.226c-.257 0-.466.066-.63.198s-.245.322-.245.571c0 .256.075.448.226.576s.369.194.648.194.499-.065.658-.194.24-.319.24-.576-.08-.449-.24-.578-.378-.191-.658-.191zm-.898 5.082c-.179 0-.325.049-.439.147s-.168.234-.168.413.058.323.175.431a.61.61 0 0 0 .431.163h1.819a.64.64 0 0 0 .436-.156c.121-.106.182-.248.182-.427s-.058-.319-.175-.42-.264-.152-.443-.152h-1.819zm7.928-5.514c.249-.249.54-.441.875-.578s.684-.203 1.05-.203c.715 0 1.252.198 1.609.594s.536.968.536 1.714v3.987h-2.321v-3.707c0-.264-.068-.476-.203-.637s-.33-.238-.578-.238c-.288 0-.521.093-.7.28s-.268.416-.268.688v3.614h-2.321v-8.451h2.321v2.938zm8.257-.641h1.306v1.574h-1.306v2.343c0 .28.047.483.14.611s.264.194.513.194h.653v1.364c-.187.062-.428.113-.723.151a6.02 6.02 0 0 1-.77.058c-.684 0-1.211-.124-1.579-.373s-.555-.672-.555-1.271v-3.077h-.863v-1.574h.956l.502-1.865h1.726v1.865zm4.782-.723h-2.321v-1.574h2.321v1.574zm0 6.877h-2.321v-6.155h2.321v6.155zm5.726-6.295c.715 0 1.252.198 1.609.594s.536.968.536 1.714v3.987h-2.321v-3.707c0-.264-.068-.476-.205-.637s-.329-.238-.576-.238c-.288 0-.521.093-.7.28a.95.95 0 0 0-.27.688v3.614h-2.318v-6.155h1.901l.152.932a2.58 2.58 0 0 1 .949-.781 2.77 2.77 0 0 1 1.243-.291zm10.459-1.014c0 .474-.118.839-.355 1.096s-.594.447-1.068.571a1.96 1.96 0 0 1 .532.599c.127.23.191.473.191.73 0 .653-.246 1.146-.739 1.48s-1.111.501-1.85.501h-.886c-.49 0-.735.113-.735.338 0 .109.054.196.163.261s.299.1.571.1h2.099c.684 0 1.201.179 1.551.536s.525.835.525 1.434c0 .443-.117.824-.35 1.142s-.548.559-.945.723-.828.245-1.294.245h-3.429a1.56 1.56 0 0 1-.774-.198c-.238-.132-.427-.312-.567-.541s-.21-.485-.21-.765c0-.303.093-.577.28-.821s.42-.431.7-.555c-.187-.132-.334-.291-.443-.478a1.18 1.18 0 0 1-.163-.606c0-.303.113-.577.338-.823s.505-.409.84-.494c-.303-.194-.544-.418-.723-.671s-.268-.517-.268-.797c0-.715.29-1.226.87-1.534s1.346-.459 2.302-.459c.42 0 .758.023 1.015.07.381-.241.628-.461.742-.66s.168-.339.168-.424h1.913zm-3.86 2.226c-.257 0-.466.066-.63.198s-.245.322-.245.571c0 .256.076.448.229.576s.366.194.646.194.5-.065.66-.194.238-.319.238-.576-.079-.449-.238-.578-.38-.191-.66-.191zm-.898 5.082c-.179 0-.324.049-.436.147s-.17.234-.17.413.058.323.175.431a.61.61 0 0 0 .431.163h1.819a.65.65 0 0 0 .438-.156.54.54 0 0 0 .18-.427c0-.179-.058-.319-.175-.42s-.264-.152-.443-.152h-1.819zm8.653-6.295c.941 0 1.707.157 2.297.471s.886.827.886 1.534v2.401a.54.54 0 0 0 .093.326c.062.086.156.128.28.128h.42v1.34c-.023.016-.083.041-.18.075s-.236.072-.415.107-.385.051-.618.051c-.451 0-.822-.068-1.113-.205s-.493-.323-.602-.564c-.295.233-.626.42-.991.56s-.793.21-1.283.21c-1.446 0-2.169-.575-2.169-1.725 0-.598.161-1.055.483-1.371s.788-.529 1.395-.646 1.399-.175 2.379-.175v-.303c0-.241-.083-.424-.25-.548s-.384-.187-.648-.187c-.241 0-.449.043-.625.128s-.261.221-.261.408v.047h-2.286c-.008-.039-.012-.093-.012-.163 0-.583.278-1.045.833-1.387s1.352-.513 2.386-.513zm.863 3.614c-.661 0-1.149.072-1.465.214s-.471.337-.471.578c0 .389.264.583.793.583.303 0 .57-.081.8-.245s.343-.365.343-.606v-.525zm6.274 2.681H63.2v-8.451h2.321v8.451zm4.662-6.295c1.127 0 1.989.264 2.584.793s.891 1.337.891 2.425v.396h-4.618c0 .443.1.777.299 1.002s.51.338.938.338c.389 0 .675-.082.858-.245s.273-.381.273-.653h2.251c0 .746-.284 1.329-.851 1.749s-1.396.63-2.484.63c-1.143 0-2.028-.267-2.657-.8s-.947-1.337-.947-2.418c0-1.057.307-1.857.921-2.401s1.462-.816 2.542-.816zm.093 1.48c-.729 0-1.137.346-1.224 1.037h2.262c0-.319-.091-.571-.273-.758s-.438-.28-.765-.28zm-56.631 8.253c1.026 0 1.87.207 2.531.622s.999 1.033 1.015 1.849v.14h-2.414v-.047c0-.233-.085-.427-.257-.583s-.431-.233-.781-.233c-.342 0-.604.05-.786.151s-.275.225-.275.373c0 .21.124.365.373.466s.649.206 1.201.315c.645.132 1.176.27 1.593.413s.778.38 1.089.706.47.769.478 1.329c0 .948-.32 1.651-.961 2.11s-1.5.688-2.573.688c-1.252 0-2.225-.21-2.92-.629s-1.045-1.162-1.045-2.226h2.437c0 .404.105.674.315.809s.536.205.98.205c.326 0 .597-.035.812-.105s.319-.214.319-.431c0-.194-.118-.34-.354-.438s-.625-.199-1.162-.308c-.653-.14-1.193-.286-1.621-.438s-.801-.401-1.12-.751-.478-.824-.478-1.422c0-.878.34-1.526 1.022-1.942s1.54-.622 2.582-.622zm8.07 1.865c1.127 0 1.988.264 2.582.793s.893 1.337.893 2.425v.396h-4.618c0 .443.099.777.296 1.003s.512.338.94.338c.389 0 .674-.082.856-.245a.83.83 0 0 0 .275-.653h2.251c0 .746-.284 1.329-.851 1.748s-1.396.629-2.484.629c-1.143 0-2.029-.267-2.659-.8s-.945-1.337-.945-2.418c0-1.057.307-1.857.921-2.401s1.462-.816 2.542-.816zm.093 1.48c-.731 0-1.139.346-1.224 1.037h2.262c0-.319-.092-.571-.275-.758s-.436-.28-.763-.28zm8.245-1.492c.179 0 .338.021.478.063l.21.077v1.947h-.746c-.482 0-.83.124-1.045.373s-.32.618-.32 1.107v2.739h-2.321v-6.155h1.901l.152.933c.14-.358.362-.628.665-.811s.645-.273 1.026-.273zm6.178 6.306h-2.437l-2.332-6.155h2.496l1.131 3.835h.082l1.131-3.835h2.286l-2.356 6.155zm5.458-6.877H39.37v-1.574h2.321v1.574zm0 6.877H39.37v-6.155h2.321v6.155zm4.665-6.295c1.011 0 1.829.215 2.454.646s.94 1.091.94 1.977h-2.251c0-.699-.381-1.049-1.143-1.049s-1.143.439-1.143 1.317v.664c0 .87.396 1.306 1.189 1.306s1.19-.358 1.19-1.072h2.157c0 .894-.313 1.558-.94 1.993s-1.443.653-2.454.653c-1.081 0-1.928-.272-2.542-.816s-.921-1.344-.921-2.401.307-1.857.921-2.401 1.462-.816 2.542-.816zm7.779 0c1.127 0 1.988.264 2.582.793s.893 1.337.893 2.425v.396h-4.618c0 .443.099.777.296 1.003s.512.338.94.338c.389 0 .674-.082.856-.245a.83.83 0 0 0 .275-.653h2.251c0 .746-.284 1.329-.851 1.748s-1.396.629-2.484.629c-1.143 0-2.029-.267-2.659-.8s-.945-1.337-.945-2.418c0-1.057.307-1.857.921-2.401s1.46-.816 2.542-.816zm.093 1.48c-.731 0-1.139.346-1.224 1.037h2.262c0-.319-.092-.571-.275-.758s-.436-.28-.763-.28zm7.426-1.48c.824 0 1.522.161 2.094.483s.856.823.856 1.499h-2.157c0-.225-.101-.385-.303-.478a1.07 1.07 0 0 0-.525-.117c-.56 0-.84.132-.84.396 0 .148.097.253.292.315s.513.128.956.198c.544.078.999.169 1.364.273a2.23 2.23 0 0 1 .956.559c.272.269.408.644.408 1.126 0 .785-.293 1.344-.879 1.679s-1.356.501-2.304.501a5.08 5.08 0 0 1-1.539-.228c-.482-.151-.875-.385-1.178-.704s-.455-.723-.455-1.212h2.157v.047c.008.264.119.448.334.553a1.51 1.51 0 0 0 .681.159c.645 0 .968-.151.968-.455 0-.155-.101-.268-.303-.338s-.533-.144-.991-.221c-.552-.093-1.005-.194-1.357-.303s-.664-.294-.928-.555-.397-.622-.397-1.089c0-.754.286-1.29.858-1.609s1.315-.478 2.232-.478z"/><path d="M2.999 76.01v2.755h-.492v-1.205H1.28v1.205H.788V76.01h.492v1.186h1.228V76.01h.492zm1.298.769a.95.95 0 0 1 .376.071.83.83 0 0 1 .29.2c.08.086.142.191.186.317s.063.263.063.417-.021.295-.063.419a.94.94 0 0 1-.186.319c-.08.087-.177.154-.29.2a.95.95 0 0 1-.376.071c-.139 0-.266-.024-.381-.071s-.21-.113-.29-.2a.94.94 0 0 1-.186-.319c-.045-.124-.068-.264-.068-.419s.023-.293.068-.417.106-.231.186-.317a.83.83 0 0 1 .29-.2c.115-.048.242-.071.381-.071zm0 1.653c.154 0 .268-.055.342-.164s.111-.269.111-.479-.037-.372-.111-.484-.188-.164-.342-.164-.273.056-.349.167-.113.272-.113.481.038.369.113.479.192.164.349.164zm2.472-1.41l-.102.169c-.012.021-.025.035-.039.043s-.03.012-.05.012-.046-.006-.07-.019l-.086-.043a.84.84 0 0 0-.111-.043c-.042-.013-.092-.019-.15-.019-.088 0-.157.02-.208.06s-.075.091-.075.155c0 .041.013.076.039.105s.06.054.104.076.091.041.145.057l.168.057.165.069a.64.64 0 0 1 .147.1c.042.04.076.087.102.143a.48.48 0 0 1 .039.202c0 .094-.016.18-.048.26s-.081.148-.143.207a.67.67 0 0 1-.233.133c-.092.033-.199.05-.319.05a.9.9 0 0 1-.186-.019c-.062-.011-.121-.028-.177-.05s-.108-.048-.156-.076a.72.72 0 0 1-.125-.095l.102-.179c.014-.022.029-.039.048-.05s.041-.017.068-.017.055.008.079.024l.086.055c.033.019.072.037.116.052a.5.5 0 0 0 .168.024.43.43 0 0 0 .136-.019c.039-.013.071-.03.095-.052s.042-.048.054-.076.018-.058.018-.088c0-.046-.014-.083-.041-.112s-.06-.054-.102-.076a.85.85 0 0 0-.147-.057l-.168-.057c-.057-.021-.114-.044-.17-.071s-.103-.062-.147-.105-.076-.092-.102-.153-.039-.136-.039-.221a.58.58 0 0 1 .045-.229c.03-.073.074-.136.131-.191s.132-.097.22-.129a.85.85 0 0 1 .304-.05.9.9 0 0 1 .351.067.8.8 0 0 1 .263.176zm.825 2.382h-.446v-2.594h.274a.12.12 0 0 1 .073.021c.021.014.035.036.041.064l.036.181c.076-.09.162-.164.258-.219s.211-.083.342-.083a.59.59 0 0 1 .279.067.65.65 0 0 1 .218.193c.06.084.107.188.14.312a1.65 1.65 0 0 1 .05.426c0 .146-.019.282-.057.407s-.091.232-.161.324-.153.162-.251.214a.71.71 0 0 1-.331.076c-.104 0-.193-.017-.267-.05a.66.66 0 0 1-.197-.141v.8zm.424-2.258c-.094 0-.173.021-.238.062a.71.71 0 0 0-.186.174v.877c.051.067.107.113.168.138s.123.041.193.041.129-.014.184-.041.101-.067.14-.121a.62.62 0 0 0 .086-.207 1.22 1.22 0 0 0 .032-.295 1.33 1.33 0 0 0-.027-.291c-.017-.079-.042-.144-.075-.193s-.071-.086-.118-.109-.1-.033-.159-.033zm1.208-.336h.449v1.955h-.449v-1.955zm.514-.569c0 .041-.008.079-.023.114s-.036.066-.063.093a.29.29 0 0 1-.091.064.27.27 0 0 1-.113.024c-.038 0-.074-.008-.109-.024a.29.29 0 0 1-.091-.064.34.34 0 0 1-.059-.093c-.015-.035-.023-.073-.023-.114a.32.32 0 0 1 .023-.119.33.33 0 0 1 .059-.095c.026-.025.056-.046.091-.062a.26.26 0 0 1 .109-.024.27.27 0 0 1 .113.024c.035.016.065.037.091.062s.048.059.063.095a.32.32 0 0 1 .023.119zm1.051 2.556c-.162 0-.285-.048-.372-.145s-.131-.227-.131-.395v-1.093H10.1c-.024 0-.045-.008-.063-.024s-.025-.042-.025-.074v-.188l.299-.05.093-.534c.005-.025.016-.045.034-.059s.04-.022.066-.022h.233v.615h.489v.336h-.489v1.06c0 .06.014.108.043.143s.067.052.116.052c.027 0 .051-.004.07-.012s.034-.013.048-.021l.039-.022c.011-.008.021-.012.032-.012a.05.05 0 0 1 .034.012c.008.006.017.017.027.031l.134.229a.65.65 0 0 1-.224.129.78.78 0 0 1-.263.045zm2.248-1.265v1.234h-.199c-.042 0-.075-.006-.1-.019s-.042-.041-.054-.081l-.041-.141c-.047.044-.093.083-.138.117a.73.73 0 0 1-.14.086c-.048.022-.1.04-.154.052a.91.91 0 0 1-.181.017c-.079 0-.151-.011-.218-.033a.47.47 0 0 1-.283-.267.6.6 0 0 1-.041-.231.46.46 0 0 1 .057-.217c.036-.072.097-.137.183-.195s.2-.105.342-.143a2.31 2.31 0 0 1 .533-.064v-.114c0-.132-.027-.229-.079-.291s-.129-.095-.229-.095a.54.54 0 0 0-.181.026c-.048.017-.091.037-.127.06l-.1.062c-.03.017-.063.026-.1.026-.03 0-.056-.009-.077-.026s-.039-.036-.052-.059l-.082-.15a1.07 1.07 0 0 1 .773-.31c.109 0 .206.019.292.057a.6.6 0 0 1 .215.155.65.65 0 0 1 .136.24.97.97 0 0 1 .045.305zm-.87.941a.52.52 0 0 0 .127-.014c.039-.008.076-.021.111-.041a.56.56 0 0 0 .1-.064 1.27 1.27 0 0 0 .098-.093v-.329a2.58 2.58 0 0 0-.329.033.83.83 0 0 0-.211.067c-.053.027-.091.058-.113.093s-.034.075-.034.117c0 .082.023.141.07.176s.107.055.181.055zm1.339-2.539h.449v2.832h-.449v-2.832zm2.159 1.088l-.102.169c-.012.021-.024.035-.036.043s-.031.012-.052.012a.16.16 0 0 1-.07-.019l-.086-.043c-.032-.016-.069-.03-.111-.043a.5.5 0 0 0-.147-.019c-.088 0-.157.02-.209.06s-.077.091-.077.155c0 .041.014.076.041.105s.06.054.102.076.093.041.147.057l.165.057.168.069a.6.6 0 0 1 .145.1.44.44 0 0 1 .104.143.48.48 0 0 1 .038.202c0 .094-.017.18-.05.26s-.079.148-.143.207-.14.102-.233.133a.93.93 0 0 1-.317.05c-.063 0-.126-.006-.188-.019s-.119-.028-.174-.05-.11-.048-.156-.076-.091-.06-.127-.095l.104-.179c.014-.022.029-.039.048-.05s.041-.017.068-.017.054.008.079.024.053.036.086.055a.62.62 0 0 0 .116.052.5.5 0 0 0 .168.024.43.43 0 0 0 .136-.019.28.28 0 0 0 .095-.052c.024-.022.042-.048.054-.076s.016-.058.016-.088c0-.046-.013-.083-.039-.112s-.06-.054-.104-.076a.78.78 0 0 0-.145-.057l-.17-.057a1.57 1.57 0 0 1-.168-.071.53.53 0 0 1-.147-.105.49.49 0 0 1-.104-.153c-.026-.062-.039-.136-.039-.221a.58.58 0 0 1 .045-.229.53.53 0 0 1 .134-.191c.059-.054.132-.097.22-.129a.85.85 0 0 1 .304-.05.88.88 0 0 1 .349.067.77.77 0 0 1 .263.176zm1.006-.491h.363v.781h.705v.348h-.705v.786h-.363v-.786h-.702v-.348h.702v-.781zm3.303 1.584c.026 0 .048.011.068.033l.192.219c-.107.138-.238.244-.392.317s-.342.112-.56.112a1.27 1.27 0 0 1-.526-.105 1.13 1.13 0 0 1-.396-.293c-.11-.124-.195-.272-.254-.445a1.74 1.74 0 0 1-.088-.564c0-.208.032-.398.097-.569s.159-.321.276-.445.26-.221.426-.291.347-.105.546-.105a1.21 1.21 0 0 1 .51.1 1.19 1.19 0 0 1 .374.26l-.163.238c-.009.014-.021.028-.036.04s-.036.017-.063.017-.055-.012-.084-.036l-.111-.074a.85.85 0 0 0-.17-.074c-.068-.022-.155-.033-.261-.033a.86.86 0 0 0-.34.067.74.74 0 0 0-.265.193.87.87 0 0 0-.175.307c-.042.119-.063.254-.063.405a1.24 1.24 0 0 0 .063.412c.041.121.097.222.17.305s.155.146.252.191a.76.76 0 0 0 .31.064 1.56 1.56 0 0 0 .181-.01.69.69 0 0 0 .149-.038.59.59 0 0 0 .127-.062.94.94 0 0 0 .122-.098c.012-.011.024-.02.036-.026s.029-.012.045-.012zm2.06-.584v1.234h-.202c-.042 0-.076-.006-.1-.019s-.042-.041-.054-.081l-.039-.141c-.047.044-.093.083-.138.117a.73.73 0 0 1-.14.086c-.048.022-.1.04-.154.052a.91.91 0 0 1-.181.017c-.079 0-.151-.011-.218-.033a.47.47 0 0 1-.172-.1c-.048-.044-.085-.1-.111-.167a.6.6 0 0 1-.041-.231.46.46 0 0 1 .057-.217c.036-.072.097-.137.183-.195s.2-.105.342-.143a2.28 2.28 0 0 1 .53-.064v-.114c0-.132-.026-.229-.077-.291s-.13-.095-.231-.095a.54.54 0 0 0-.181.026c-.048.017-.09.037-.125.06l-.1.062c-.03.017-.063.026-.1.026-.03 0-.056-.009-.077-.026a.16.16 0 0 1-.052-.059l-.082-.15a1.07 1.07 0 0 1 .773-.31c.109 0 .206.019.292.057a.6.6 0 0 1 .215.155c.059.067.104.147.136.24a.97.97 0 0 1 .045.305zm-.87.941a.52.52 0 0 0 .127-.014c.039-.008.076-.021.111-.041s.067-.039.1-.064a1.02 1.02 0 0 0 .095-.093v-.329a2.57 2.57 0 0 0-.326.033.83.83 0 0 0-.211.067c-.053.027-.091.058-.113.093s-.034.075-.034.117c0 .082.023.141.07.176s.107.055.181.055zm1.758.293h-.449v-1.955h.263c.047 0 .079.009.097.026s.03.05.036.093l.027.236a.92.92 0 0 1 .233-.286c.089-.07.19-.105.301-.105.092 0 .168.022.229.067l-.059.353c-.003.022-.011.038-.023.048s-.029.014-.05.014-.043-.004-.075-.012-.073-.014-.125-.014c-.094 0-.174.027-.24.081a.61.61 0 0 0-.168.238v1.217zm1.801-1.986c.118 0 .226.02.324.059a.7.7 0 0 1 .254.174c.073.075.128.167.168.276s.059.237.059.376l-.005.091c-.003.022-.008.04-.016.055s-.018.022-.032.029-.03.007-.05.007h-1.149c.012.202.063.349.154.443s.207.141.354.141a.6.6 0 0 0 .188-.026.77.77 0 0 0 .138-.059l.104-.059c.029-.017.057-.026.086-.026a.08.08 0 0 1 .045.012c.014.008.026.019.036.033l.129.172a.8.8 0 0 1-.165.152c-.062.041-.127.075-.195.1s-.134.041-.204.052-.137.014-.202.014c-.13 0-.25-.022-.36-.067a.82.82 0 0 1-.29-.2.94.94 0 0 1-.195-.329c-.047-.13-.07-.281-.07-.453a1.14 1.14 0 0 1 .061-.376.91.91 0 0 1 .177-.307c.077-.087.171-.156.281-.207s.235-.076.374-.076zm.009.338c-.13 0-.232.039-.306.117s-.121.187-.14.329h.841a.58.58 0 0 0-.025-.172c-.015-.054-.039-.102-.073-.143s-.072-.071-.122-.095a.4.4 0 0 0-.174-.036zm1.609 1.648h-.449v-2.832h.449v1.088a.95.95 0 0 1 .238-.176c.088-.044.189-.067.306-.067a.64.64 0 0 1 .272.055c.078.037.143.087.195.153a.67.67 0 0 1 .12.236 1.04 1.04 0 0 1 .041.3v1.243h-.446v-1.243c0-.121-.026-.213-.079-.279s-.132-.098-.238-.098c-.077 0-.15.018-.218.055s-.13.087-.19.15v1.415zm2.406-1.986a.97.97 0 0 1 .378.071.81.81 0 0 1 .288.2c.08.086.142.191.186.317s.066.263.066.417-.022.295-.066.419a.94.94 0 0 1-.186.319c-.079.087-.174.154-.288.2a.97.97 0 0 1-.378.071c-.139 0-.265-.024-.378-.071s-.211-.113-.292-.2-.142-.195-.186-.319-.066-.264-.066-.419.022-.293.066-.417.106-.231.186-.317.179-.153.292-.2.239-.071.378-.071zm0 1.653c.154 0 .269-.055.344-.164s.111-.269.111-.479-.037-.372-.111-.484-.19-.164-.344-.164-.273.056-.349.167-.111.272-.111.481.037.369.111.479.192.164.349.164zm1.715.333h-.449v-1.955h.274c.057 0 .095.029.113.086l.029.145c.033-.038.067-.073.102-.105a.64.64 0 0 1 .116-.081.55.55 0 0 1 .129-.055c.047-.014.098-.021.154-.021.118 0 .214.033.29.1a.59.59 0 0 1 .168.267c.03-.065.067-.121.109-.167s.092-.084.145-.114.107-.05.165-.064.118-.021.177-.021c.103 0 .194.017.274.05a.53.53 0 0 1 .199.145.65.65 0 0 1 .125.233 1.04 1.04 0 0 1 .043.314v1.243h-.449v-1.243c0-.125-.026-.219-.077-.281s-.128-.095-.229-.095c-.045 0-.088.008-.127.024s-.074.041-.104.072-.052.071-.07.119-.025.1-.025.162v1.243h-.449v-1.243c0-.132-.025-.227-.075-.286s-.125-.091-.222-.091c-.065 0-.125.017-.181.05s-.108.079-.156.138v1.431zm3.371-1.986c.118 0 .226.02.324.059s.183.098.256.174.126.167.165.276.061.237.061.376l-.005.091c-.003.022-.009.04-.018.055s-.018.022-.032.029-.029.007-.05.007h-1.149c.014.202.065.349.154.443s.208.141.356.141a.58.58 0 0 0 .186-.026.77.77 0 0 0 .138-.059l.104-.059c.029-.017.057-.026.086-.026.018 0 .034.004.048.012s.023.019.034.033l.129.172a.73.73 0 0 1-.165.152.97.97 0 0 1-.193.1 1.18 1.18 0 0 1-.206.052c-.069.01-.137.014-.202.014-.13 0-.25-.022-.36-.067s-.209-.113-.29-.2a.94.94 0 0 1-.195-.329c-.047-.13-.07-.281-.07-.453a1.14 1.14 0 0 1 .061-.376.91.91 0 0 1 .177-.307c.077-.087.171-.156.281-.207s.235-.076.374-.076zm.009.338c-.13 0-.232.039-.306.117s-.121.187-.141.329h.841c0-.06-.008-.118-.023-.172a.45.45 0 0 0-.072-.143c-.033-.04-.075-.071-.125-.095a.4.4 0 0 0-.175-.036zm2.365-.095l-.1.169c-.012.021-.025.035-.038.043s-.031.012-.052.012-.044-.006-.068-.019l-.086-.043a.8.8 0 0 0-.113-.043.5.5 0 0 0-.147-.019c-.088 0-.157.02-.208.06s-.075.091-.075.155c0 .041.013.076.039.105s.06.054.102.076a.86.86 0 0 0 .147.057l.165.057.168.069c.054.027.103.06.145.1s.079.087.104.143a.48.48 0 0 1 .039.202c0 .094-.016.18-.048.26a.59.59 0 0 1-.145.207c-.062.057-.139.102-.231.133a.95.95 0 0 1-.319.05c-.063 0-.126-.006-.188-.019s-.119-.028-.174-.05a1.11 1.11 0 0 1-.156-.076c-.048-.029-.091-.06-.127-.095l.104-.179c.014-.022.029-.039.048-.05s.041-.017.068-.017.055.008.079.024.053.036.086.055.072.037.116.052a.5.5 0 0 0 .168.024c.053 0 .098-.006.136-.019a.28.28 0 0 0 .095-.052c.024-.022.042-.048.054-.076s.016-.058.016-.088c0-.046-.013-.083-.038-.112s-.06-.054-.102-.076-.093-.041-.147-.057l-.17-.057a1.57 1.57 0 0 1-.168-.071c-.054-.027-.104-.062-.147-.105s-.076-.092-.102-.153-.041-.136-.041-.221a.58.58 0 0 1 .045-.229.53.53 0 0 1 .134-.191c.059-.054.132-.097.22-.129a.85.85 0 0 1 .303-.05c.128 0 .245.022.349.067a.77.77 0 0 1 .263.176zm1.706-.491h.362v.781h.705v.348h-.705v.786h-.362v-.786h-.702v-.348h.702v-.781zm3.025-.262l-.12.243c-.012.027-.027.046-.045.057s-.039.019-.063.019-.051-.01-.081-.031l-.107-.064c-.041-.025-.088-.048-.143-.067a.6.6 0 0 0-.195-.029c-.068 0-.127.008-.177.024s-.094.041-.127.071-.06.068-.077.11-.027.09-.027.14c0 .065.017.119.052.162a.46.46 0 0 0 .138.112 1.18 1.18 0 0 0 .193.081l.222.076.222.095c.073.037.138.082.195.138s.101.123.136.203a.74.74 0 0 1 .052.293.98.98 0 0 1-.061.348.83.83 0 0 1-.177.286c-.078.079-.174.143-.285.191a1.02 1.02 0 0 1-.387.069 1.14 1.14 0 0 1-.245-.026c-.082-.017-.159-.042-.233-.074s-.144-.07-.208-.114-.123-.094-.175-.148l.143-.245c.014-.019.029-.034.048-.045s.039-.019.063-.019c.03 0 .063.013.098.04l.125.086c.047.032.103.06.168.086s.143.04.233.04c.139 0 .246-.035.322-.105s.116-.168.116-.298c0-.073-.017-.132-.052-.176s-.081-.085-.138-.117-.12-.056-.193-.079l-.222-.071c-.074-.025-.147-.056-.22-.091s-.137-.081-.195-.138-.103-.129-.136-.214-.052-.192-.052-.319a.79.79 0 0 1 .057-.293.73.73 0 0 1 .168-.252.8.8 0 0 1 .267-.179c.107-.044.229-.067.365-.067.156 0 .298.025.428.076a.96.96 0 0 1 .333.214zm1.189.51c.139 0 .265.024.378.071s.208.114.288.2.142.191.186.317.066.263.066.417-.022.295-.066.419-.106.23-.186.319-.176.154-.288.2-.239.071-.378.071-.265-.024-.378-.071a.79.79 0 0 1-.292-.2c-.08-.089-.142-.195-.186-.319s-.066-.264-.066-.419.022-.293.066-.417.106-.231.186-.317.178-.153.292-.2.239-.071.378-.071zm0 1.653c.154 0 .268-.055.342-.164s.113-.269.113-.479-.038-.372-.113-.484-.188-.164-.342-.164-.273.056-.349.167-.111.272-.111.481.037.369.111.479.192.164.349.164zm2.692-1.379l-.118.172c-.014.017-.026.031-.038.04s-.033.017-.057.017-.044-.007-.066-.021l-.079-.05a.53.53 0 0 0-.106-.05c-.042-.014-.094-.021-.156-.021-.079 0-.147.015-.206.045s-.108.072-.147.129-.069.123-.088.203-.029.169-.029.269.011.198.032.279.052.149.093.205.088.098.145.126a.41.41 0 0 0 .19.043c.073 0 .131-.01.175-.029s.081-.04.111-.062l.079-.06c.023-.019.047-.028.075-.028.036 0 .063.015.082.045l.129.172c-.05.06-.103.111-.161.152a.93.93 0 0 1-.181.1.98.98 0 0 1-.193.052c-.066.01-.132.014-.197.014a.81.81 0 0 1-.326-.067.78.78 0 0 1-.265-.198c-.075-.087-.135-.193-.179-.317s-.066-.268-.066-.429c0-.143.02-.276.059-.4s.097-.228.172-.317a.8.8 0 0 1 .283-.212c.112-.051.241-.076.387-.076a.87.87 0 0 1 .365.071c.106.048.2.115.283.202zm.333-.243h.446v1.955h-.446v-1.955zm.514-.569c0 .041-.008.079-.023.114s-.038.066-.063.093a.29.29 0 0 1-.091.064.28.28 0 0 1-.113.024c-.039 0-.076-.008-.109-.024a.29.29 0 0 1-.091-.064c-.026-.027-.046-.058-.061-.093s-.023-.073-.023-.114a.32.32 0 0 1 .023-.119c.015-.037.035-.068.061-.095s.056-.046.091-.062a.25.25 0 0 1 .109-.024.28.28 0 0 1 .113.024c.035.016.065.037.091.062s.047.059.063.095a.32.32 0 0 1 .023.119zm1.896 1.291v1.234h-.202c-.042 0-.076-.006-.1-.019s-.042-.041-.054-.081l-.041-.141c-.047.044-.093.083-.138.117a.73.73 0 0 1-.14.086c-.048.022-.1.04-.154.052a.91.91 0 0 1-.181.017c-.078 0-.151-.011-.218-.033a.45.45 0 0 1-.17-.1c-.048-.044-.086-.1-.113-.167a.63.63 0 0 1-.038-.231c0-.073.018-.145.054-.217s.099-.137.183-.195.201-.105.344-.143.319-.06.53-.064v-.114c0-.132-.026-.229-.079-.291s-.129-.095-.229-.095a.54.54 0 0 0-.181.026c-.048.017-.091.037-.127.06l-.097.062c-.03.017-.064.026-.1.026-.03 0-.057-.009-.079-.026s-.038-.036-.052-.059l-.082-.15c.215-.206.473-.31.775-.31a.7.7 0 0 1 .29.057c.086.037.159.088.218.155s.103.147.134.24a.93.93 0 0 1 .048.305zm-.87.941a.54.54 0 0 0 .127-.014.39.39 0 0 0 .109-.041.56.56 0 0 0 .1-.064 1.27 1.27 0 0 0 .097-.093v-.329a2.57 2.57 0 0 0-.326.033.87.87 0 0 0-.213.067c-.053.027-.091.058-.113.093a.23.23 0 0 0-.032.117c0 .082.023.141.068.176a.29.29 0 0 0 .183.055zm1.339-2.539h.449v2.832h-.449v-2.832zm2.377 1.119l-.118.172c-.012.017-.025.031-.039.04s-.03.017-.054.017-.045-.007-.068-.021-.047-.033-.077-.05-.066-.036-.109-.05a.47.47 0 0 0-.154-.021c-.079 0-.147.015-.206.045s-.11.072-.15.129-.068.123-.086.203a1.12 1.12 0 0 0-.029.269 1.11 1.11 0 0 0 .032.279.63.63 0 0 0 .091.205c.041.056.089.098.145.126s.122.043.193.043.128-.01.172-.029.083-.04.113-.062l.077-.06c.023-.019.048-.028.077-.028.036 0 .063.015.081.045l.127.172a.78.78 0 0 1-.161.152c-.057.041-.117.075-.179.1s-.128.041-.195.052-.132.014-.197.014c-.115 0-.223-.022-.324-.067a.78.78 0 0 1-.265-.198c-.075-.087-.135-.193-.179-.317s-.068-.268-.068-.429c0-.143.02-.276.059-.4s.097-.228.174-.317a.78.78 0 0 1 .283-.212c.112-.051.241-.076.387-.076a.87.87 0 0 1 .365.071c.104.048.198.115.281.202zm1.763.479v1.234h-.202c-.042 0-.076-.006-.1-.019s-.042-.041-.054-.081l-.039-.141a1.66 1.66 0 0 1-.14.117c-.045.035-.092.064-.14.086a.8.8 0 0 1-.154.052.91.91 0 0 1-.181.017.68.68 0 0 1-.218-.033.45.45 0 0 1-.17-.1c-.048-.044-.085-.1-.111-.167s-.041-.142-.041-.231c0-.073.018-.145.054-.217a.56.56 0 0 1 .186-.195c.085-.057.199-.105.342-.143a2.28 2.28 0 0 1 .53-.064v-.114c0-.132-.026-.229-.079-.291s-.128-.095-.229-.095a.54.54 0 0 0-.181.026c-.048.017-.09.037-.125.06l-.1.062c-.03.017-.063.026-.1.026-.03 0-.056-.009-.077-.026s-.041-.036-.054-.059l-.082-.15c.215-.206.473-.31.775-.31a.7.7 0 0 1 .29.057c.086.037.159.088.218.155s.104.147.136.24.045.194.045.305zm-.87.941a.54.54 0 0 0 .127-.014.36.36 0 0 0 .109-.041c.035-.017.068-.039.1-.064s.066-.058.097-.093v-.329a2.57 2.57 0 0 0-.326.033.83.83 0 0 0-.211.067c-.054.027-.092.058-.113.093s-.034.075-.034.117c0 .082.023.141.07.176a.28.28 0 0 0 .181.055zm1.758.293h-.449v-1.955h.263c.047 0 .079.009.097.026s.03.05.036.093l.027.236a.92.92 0 0 1 .233-.286c.089-.07.19-.105.301-.105.091 0 .166.022.227.067l-.057.353c-.005.022-.013.038-.025.048s-.028.014-.048.014-.043-.004-.075-.012-.073-.014-.125-.014a.37.37 0 0 0-.24.081c-.066.054-.122.133-.168.238v1.217zm1.801-1.986c.118 0 .226.02.324.059a.7.7 0 0 1 .254.174.8.8 0 0 1 .168.276c.039.111.059.237.059.376l-.005.091c-.003.022-.008.04-.016.055s-.018.022-.032.029-.03.007-.05.007h-1.151c.014.202.065.349.154.443s.209.141.356.141a.6.6 0 0 0 .188-.026.77.77 0 0 0 .138-.059l.102-.059c.03-.017.059-.026.086-.026.018 0 .034.004.047.012s.025.019.034.033l.131.172c-.05.06-.106.111-.168.152s-.125.075-.193.1-.134.041-.204.052-.137.014-.202.014a.97.97 0 0 1-.362-.067c-.11-.046-.207-.113-.29-.2a.96.96 0 0 1-.193-.329c-.047-.13-.07-.281-.07-.453a1.14 1.14 0 0 1 .061-.376.91.91 0 0 1 .177-.307c.077-.087.171-.156.281-.207s.235-.076.374-.076zm.009.338c-.13 0-.232.039-.306.117a.59.59 0 0 0-.143.329h.843c0-.06-.008-.118-.025-.172s-.039-.102-.072-.143-.072-.071-.122-.095a.4.4 0 0 0-.175-.036zm1.788-.586h.363v.781h.705v.348h-.705v.786h-.363v-.786h-.702v-.348h.702v-.781zm3.711-.522v2.755h-.492v-1.205h-1.228v1.205h-.492V76.01h.492v1.186h1.228V76.01h.492zm1.298.769c.139 0 .265.024.378.071a.84.84 0 0 1 .288.2c.08.086.142.191.186.317s.066.263.066.417-.022.295-.066.419-.106.23-.186.319a.8.8 0 0 1-.288.2c-.113.048-.239.071-.378.071s-.265-.024-.378-.071a.79.79 0 0 1-.292-.2c-.08-.089-.142-.195-.186-.319s-.066-.264-.066-.419.022-.293.066-.417.106-.231.186-.317.177-.153.292-.2.239-.071.378-.071zm0 1.653c.154 0 .268-.055.342-.164s.113-.269.113-.479-.038-.372-.113-.484-.188-.164-.342-.164-.273.056-.349.167-.111.272-.111.481.037.369.111.479.192.164.349.164zm1.713.333h-.446v-1.955h.274c.057 0 .095.029.113.086l.029.145c.032-.038.066-.073.102-.105s.074-.059.113-.081a.54.54 0 0 1 .131-.055c.047-.014.098-.021.154-.021.116 0 .212.033.288.1s.132.156.17.267c.029-.065.065-.121.109-.167a.66.66 0 0 1 .143-.114c.053-.029.108-.05.165-.064s.118-.021.177-.021c.103 0 .194.017.274.05s.147.082.202.145a.65.65 0 0 1 .125.233 1.04 1.04 0 0 1 .043.314v1.243h-.449v-1.243c0-.125-.026-.219-.077-.281s-.129-.095-.229-.095c-.047 0-.09.008-.129.024s-.073.041-.102.072-.054.071-.07.119-.025.1-.025.162v1.243h-.451v-1.243c0-.132-.025-.227-.075-.286s-.124-.091-.222-.091c-.063 0-.123.017-.179.05s-.11.079-.159.138v1.431zm3.374-1.986c.118 0 .226.02.324.059a.7.7 0 0 1 .254.174c.073.075.128.167.168.276s.059.237.059.376l-.005.091c-.003.022-.008.04-.016.055s-.018.022-.032.029-.03.007-.05.007h-1.149c.012.202.063.349.154.443s.207.141.353.141a.6.6 0 0 0 .188-.026.77.77 0 0 0 .138-.059l.104-.059c.029-.017.057-.026.086-.026.018 0 .033.004.045.012s.026.019.036.033l.129.172a.8.8 0 0 1-.165.152c-.062.041-.127.075-.195.1s-.134.041-.204.052-.137.014-.202.014c-.13 0-.25-.022-.36-.067a.82.82 0 0 1-.29-.2.94.94 0 0 1-.195-.329c-.047-.13-.07-.281-.07-.453a1.14 1.14 0 0 1 .061-.376.91.91 0 0 1 .177-.307c.077-.087.171-.156.281-.207s.235-.076.374-.076zm.009.338c-.13 0-.232.039-.306.117s-.121.187-.141.329h.841c0-.06-.008-.118-.025-.172s-.039-.102-.073-.143-.072-.071-.122-.095a.4.4 0 0 0-.174-.036zm2.585-.064l-.118.172c-.014.017-.026.031-.038.04s-.032.017-.057.017-.045-.007-.066-.021l-.079-.05c-.03-.019-.066-.036-.106-.05s-.094-.021-.156-.021c-.079 0-.147.015-.206.045s-.108.072-.147.129-.069.123-.088.203a1.12 1.12 0 0 0-.029.269 1.11 1.11 0 0 0 .032.279.6.6 0 0 0 .093.205c.039.056.088.098.145.126s.12.043.193.043.128-.01.172-.029.081-.04.111-.062l.079-.06c.023-.019.048-.028.075-.028.036 0 .063.015.081.045l.129.172c-.05.06-.103.111-.161.152a.93.93 0 0 1-.181.1c-.062.024-.126.041-.193.052a1.38 1.38 0 0 1-.197.014c-.115 0-.223-.022-.324-.067s-.192-.112-.267-.198-.135-.193-.179-.317-.066-.268-.066-.429c0-.143.02-.276.059-.4s.097-.228.172-.317.172-.161.283-.212.242-.076.387-.076c.139 0 .261.024.367.071s.198.115.281.202zm1.76.479v1.234h-.199c-.042 0-.075-.006-.1-.019s-.042-.041-.054-.081l-.041-.141c-.047.044-.093.083-.138.117a.73.73 0 0 1-.14.086c-.048.022-.1.04-.154.052a.91.91 0 0 1-.181.017c-.079 0-.151-.011-.218-.033a.47.47 0 0 1-.283-.267c-.027-.065-.041-.142-.041-.231a.46.46 0 0 1 .057-.217c.036-.072.097-.137.184-.195s.2-.105.342-.143a2.31 2.31 0 0 1 .532-.064v-.114c0-.132-.026-.229-.079-.291s-.129-.095-.229-.095a.54.54 0 0 0-.181.026.69.69 0 0 0-.127.06l-.1.062c-.03.017-.063.026-.1.026-.03 0-.056-.009-.077-.026s-.038-.036-.052-.059l-.082-.15a1.07 1.07 0 0 1 .773-.31c.109 0 .206.019.292.057a.6.6 0 0 1 .215.155.65.65 0 0 1 .136.24.97.97 0 0 1 .045.305zm-.87.941a.52.52 0 0 0 .127-.014c.039-.008.076-.021.111-.041a.56.56 0 0 0 .1-.064 1.27 1.27 0 0 0 .098-.093v-.329a2.58 2.58 0 0 0-.329.033.83.83 0 0 0-.211.067c-.053.027-.091.058-.113.093s-.034.075-.034.117c0 .082.023.141.07.176s.107.055.181.055zm1.758.293h-.446v-1.955h.263c.045 0 .077.009.095.026s.03.05.036.093l.027.236a.92.92 0 0 1 .233-.286.48.48 0 0 1 .301-.105c.092 0 .168.022.229.067l-.059.353c-.003.022-.011.038-.023.048s-.029.014-.05.014-.042-.004-.072-.012-.074-.014-.127-.014c-.092 0-.171.027-.238.081a.63.63 0 0 0-.17.238v1.217zm1.801-1.986c.118 0 .226.02.324.059a.72.72 0 0 1 .256.174c.071.075.126.167.165.276s.061.237.061.376c0 .037-.002.067-.005.091s-.009.04-.018.055-.018.022-.032.029-.029.007-.05.007h-1.149c.014.202.065.349.154.443s.208.141.356.141a.58.58 0 0 0 .186-.026.77.77 0 0 0 .138-.059l.104-.059c.029-.017.057-.026.086-.026.018 0 .034.004.048.012s.023.019.034.033l.129.172a.73.73 0 0 1-.165.152.97.97 0 0 1-.192.1c-.068.024-.137.041-.206.052s-.137.014-.202.014c-.13 0-.25-.022-.36-.067a.82.82 0 0 1-.29-.2.94.94 0 0 1-.195-.329c-.047-.13-.07-.281-.07-.453a1.14 1.14 0 0 1 .061-.376.91.91 0 0 1 .177-.307c.077-.087.171-.156.281-.207s.235-.076.374-.076zm.009.338c-.13 0-.232.039-.306.117s-.121.187-.141.329h.841c0-.06-.008-.118-.023-.172a.45.45 0 0 0-.072-.143c-.033-.04-.075-.071-.125-.095a.4.4 0 0 0-.175-.036z"/></g><g clip-path="url(#A)"><path d="M45.341 13.369V1.053h-15.32v12.316H17.705V28.68h11.803v12.324h16.347V28.68h11.802V13.369H45.341zm-7.66 15.912s-8.489-2.771-8.489-8.782c0-2.559 2.074-4.635 4.633-4.635 1.608 0 3.021.818 3.854 2.056.832-1.241 2.246-2.056 3.85-2.056a4.64 4.64 0 0 1 4.639 4.635c.001 6.011-8.487 8.782-8.487 8.782z" fill="#046380"/></g><defs><clipPath id="A"><path fill="#fff" transform="translate(17.192 .54)" d="M0 0h40.978v40.978H0z"/></clipPath></defs></svg>