<?xml version="1.0" encoding="UTF-8"?>
<!DOCTYPE svg PUBLIC "-//W3C//DTD SVG 1.1//EN" "http://www.w3.org/Graphics/SVG/1.1/DTD/svg11.dtd">
<!-- Creator: CorelDRAW 2021 (64-Bit) -->
<svg xmlns="http://www.w3.org/2000/svg" xml:space="preserve" width="9.8938mm" height="10.8475mm" version="1.1" style="shape-rendering:geometricPrecision; text-rendering:geometricPrecision; image-rendering:optimizeQuality; fill-rule:evenodd; clip-rule:evenodd"
viewBox="0 0 8.61 9.44"
 xmlns:xlink="http://www.w3.org/1999/xlink"
 xmlns:xodm="http://www.corel.com/coreldraw/odm/2003">
 <defs>
  <style type="text/css">
   <![CDATA[
    .fil0 {fill:#2eca8b}
   ]]>
  </style>
 </defs>
 <g id="Layer_x0020_1">
  <metadata id="CorelCorpID_0Corel-Layer"/>
  <g id="_2176620863328">
   <path class="fil0" d="M3.58 4.05c0.07,-0.07 0.08,-0.11 0.16,-0.13 0.05,-0.09 0.25,-0.16 0.38,-0.18l0.33 -0.01c0.14,0.02 0.35,0.07 0.42,0.17 0.06,0.01 0.05,0.01 0.1,0.06 0.04,0.04 0.04,0.03 0.07,0.08 0.09,0.08 0.16,0.19 0.21,0.33 0.04,0.09 0.1,0.36 0.04,0.44 0.01,0.12 -0.01,0.17 -0.05,0.27 -0.02,0.06 -0.02,0.07 -0.07,0.1 -0.01,0.06 -0.02,0.07 -0.06,0.12 -0.03,0.03 -0.05,0.06 -0.08,0.09 -0.05,0.06 -0.1,0.11 -0.19,0.15l-0.03 0.02c-0.08,0.06 -0.22,0.12 -0.31,0.11 -0.07,0.07 -0.29,0.03 -0.39,0.01 -0.11,-0.03 -0.27,-0.07 -0.31,-0.13l-0.06 -0.03c-0.08,-0.06 -0.12,-0.08 -0.18,-0.15 -0.04,-0.05 -0.1,-0.14 -0.13,-0.2 -0.22,-0.33 -0.08,-0.93 0.14,-1.11zm0.28 -1.85l-0.08 0.49c-0.06,0.02 -0.14,0.04 -0.21,0.07 -0.08,0.03 -0.13,0.06 -0.21,0.08l-0.15 0.08c-0.05,-0.03 -0.17,-0.11 -0.2,-0.15 -0.15,-0.07 -0.17,-0.19 -0.39,-0.16 -0.03,0.03 -0.04,0.03 -0.08,0.07 -0.02,0.02 -0.06,0.05 -0.08,0.08 -0.07,0.07 -0.1,0.12 -0.17,0.15l-0.05 0.05c-0.01,0.05 -0.01,0.01 -0.04,0.07 -0.02,0.03 -0.03,0.04 -0.03,0.08 -0.01,0.1 0.03,0.12 0.04,0.19 0.05,0.03 0.06,0.06 0.09,0.1 0.04,0.06 0.19,0.24 0.18,0.28 -0.03,0.09 -0.08,0.16 -0.12,0.26 -0.04,0.09 -0.06,0.18 -0.09,0.28l-0.38 0.06c-0.18,0.04 -0.19,0.01 -0.27,0.15l-0.01 0.37c-0,0.06 -0.01,0.15 0,0.21 0.02,0.1 0.05,0.08 0.07,0.13l0.22 0.05 0.37 0.06c0.03,0.13 0.07,0.24 0.13,0.35 0.05,0.11 0.15,0.21 0.02,0.28 -0.03,0.07 -0.1,0.17 -0.15,0.21 -0.01,0.05 0,0.01 -0.02,0.05 -0,0 -0.02,0.03 -0.02,0.03 -0.02,0.03 -0.03,0.04 -0.04,0.07 -0.02,0.17 0.04,0.18 0.11,0.26l0.09 0.09c0.09,0.07 0.15,0.17 0.25,0.23 0.18,0.03 0.25,-0.08 0.37,-0.14 0.04,-0.04 0.06,-0.05 0.11,-0.08l0.13 -0.09c0.08,0.03 0.16,0.08 0.24,0.11 0.09,0.04 0.17,0.06 0.26,0.09l0.04 0.02 0.04 0.28c0.01,0.06 0.02,0.12 0.03,0.17 0.01,0.07 0.04,0.11 0.07,0.15l0.18 0.04 0.37 -0c0.1,-0 0.11,0 0.2,-0.04 0.13,-0.2 0.09,-0.49 0.17,-0.63 0.18,-0.06 0.35,-0.11 0.5,-0.21 0.05,0.02 0.1,0.05 0.13,0.09 0.05,0.03 0.1,0.05 0.13,0.1 0.05,0.01 0.1,0.05 0.15,0.09 0.06,0.04 0.11,0.04 0.18,0.06 0.17,-0.14 0.16,-0.15 0.28,-0.25l0.09 -0.09c0.06,-0.08 0.13,-0.09 0.12,-0.25 -0.02,-0.06 -0.02,-0.05 -0.05,-0.1 -0.01,-0.02 -0.02,-0.03 -0.03,-0.04 -0.02,-0.04 -0.01,-0.01 -0.02,-0.05 -0.06,-0.04 -0.04,-0.03 -0.08,-0.09 -0.03,-0.05 -0.04,-0.04 -0.06,-0.1l-0.08 -0.11c0.03,-0.07 0.09,-0.17 0.12,-0.26 0.04,-0.1 0.07,-0.18 0.1,-0.29 0.1,-0.02 0.2,-0.05 0.3,-0.04 0.05,-0.04 0.18,-0.05 0.25,-0.06 0.04,-0.04 0.08,-0.05 0.1,-0.12 0.02,-0.06 0.01,-0.16 0.01,-0.23l-0.01 -0.37c-0.06,-0.15 -0.11,-0.13 -0.28,-0.17l-0.38 -0.06c-0.03,-0.09 -0.06,-0.19 -0.09,-0.27 -0.04,-0.09 -0.09,-0.17 -0.12,-0.25l-0.01 -0.02c0.04,-0.06 0.15,-0.23 0.2,-0.27 0.02,-0.06 0,-0.04 0.06,-0.08 0.02,-0.06 0.01,-0.02 0.04,-0.08 0.01,-0.03 0.02,-0.05 0.02,-0.08 0,-0.08 -0.04,-0.12 -0.07,-0.16l-0.04 -0.04c-0.13,-0.1 -0.21,-0.22 -0.36,-0.34 -0.21,-0.01 -0.24,0.09 -0.37,0.16 -0.04,0.04 -0.12,0.1 -0.18,0.13 -0.06,0.04 -0.13,0.01 -0.17,-0.04 -0.13,-0.04 -0.27,-0.1 -0.42,-0.15l-0.08 -0.49c-0.06,-0.14 -0.08,-0.17 -0.26,-0.17l-0.36 -0c-0.17,0 -0.21,0.04 -0.26,0.17z"/>
   <path class="fil0" d="M4.3 0.37l-0 0.06 -0.18 0.01 -0.32 0.01c-0.01,0 -0.01,0 -0.02,0.01l-0.4 0.07c-0.08,0.03 -0.28,0.08 -0.35,0.08l-0.1 0.05c-0.32,0.11 -0.44,0.2 -0.65,0.28 -0.08,0.05 -0.23,0.15 -0.31,0.17 -0.03,0.04 -0.01,0.03 -0.06,0.06 -0.05,0.05 -0.12,0.09 -0.18,0.13 -0.07,0.06 -0.11,0.1 -0.18,0.13 -0.02,0.07 -0.03,0.06 -0.09,0.09 -0.03,0.04 -0.1,0.11 -0.14,0.15 -0.05,0.05 -0.09,0.1 -0.14,0.14 -0.03,0.05 -0.04,0.05 -0.09,0.08 -0.02,0.07 -0.08,0.11 -0.13,0.18l-0.37 0.53c-0.03,0.07 -0.1,0.23 -0.16,0.28 -0,0.05 0,0.06 -0.03,0.09 -0.02,0.07 -0.05,0.13 -0.08,0.21 -0.02,0.04 -0.03,0.07 -0.04,0.11l-0.05 0.09c0,0.1 -0.06,0.24 -0.09,0.35 -0.03,0.11 -0.05,0.25 -0.08,0.35 -0.01,0.1 -0.02,0.37 -0.06,0.44l0.01 0.32 0.02 0.37c0.02,0.13 0.12,0.64 0.12,0.69 0.03,0.04 0.14,0.38 0.15,0.43l0.3 0.61c0.03,0.05 0.03,0.05 0.04,0.1 0.06,0.04 0.15,0.19 0.17,0.25 0.02,0.01 0.02,0.01 0.05,0.04 0.03,0.04 0.02,0.04 0.03,0.07l0.47 0.49c0.05,0.04 0.14,0.12 0.17,0.16 0.04,0.03 0.08,0.06 0.11,0.09l0.12 0.08c0,-0 0.01,-0.01 0.01,-0.01l0.33 -0.44 0.03 -0.05c-0.02,-0.03 -0.01,-0.01 -0.03,-0.03l-0.09 -0.07c-0.05,-0.04 -0.1,-0.07 -0.12,-0.11 -0.04,-0.02 -0.02,-0 -0.06,-0.04 -0.03,-0.03 -0.03,-0.04 -0.05,-0.07 -0.06,-0.03 -0.12,-0.1 -0.17,-0.16 -0.15,-0.16 -0.34,-0.37 -0.43,-0.57l-0.05 -0.08 -0.15 -0.29 -0.15 -0.36c-0.06,-0.14 -0.18,-0.55 -0.15,-0.7 -0.04,-0.07 -0.04,-0.33 -0.04,-0.41l0 -0.28c0.01,-0.16 0.03,-0.32 0.06,-0.48l0.09 -0.35c0.02,-0.05 0,-0.01 0.02,-0.04 -0,-0.07 0.06,-0.25 0.1,-0.31 0.03,-0.1 0.14,-0.33 0.19,-0.42 0.04,-0.07 0.08,-0.12 0.11,-0.18 0.04,-0.08 0.07,-0.1 0.12,-0.17 0.03,-0.04 0.05,-0.07 0.08,-0.11 0.04,-0.05 0.02,-0.07 0.09,-0.09 0.03,-0.06 0.09,-0.13 0.14,-0.16 0.02,-0.02 0.01,-0.01 0.03,-0.03 0.05,-0.06 0.15,-0.16 0.2,-0.18 0.03,-0.04 0.01,-0.02 0.05,-0.05 0.01,-0.01 0.03,-0.03 0.04,-0.04 0.04,-0.04 0.05,-0.04 0.1,-0.07 0.02,-0.02 0.06,-0.05 0.09,-0.08 0.05,-0.04 0.04,-0.05 0.1,-0.06 0.03,-0.06 0.31,-0.22 0.38,-0.23 0.04,-0.04 0.04,-0.04 0.1,-0.06 0.03,-0.01 0.05,-0.03 0.09,-0.04 0.07,-0.03 0.12,-0.05 0.18,-0.08l0.37 -0.11 0.38 -0.08 0.53 -0.04c0.02,0.02 0.02,-0.04 0.02,0.05l0.01 0.37c0.11,-0.01 0.21,-0.11 0.28,-0.16 0.08,-0.06 0.16,-0.13 0.25,-0.17l0.11 -0.07c0.01,-0.02 0.01,-0.02 0.05,-0.04 0.02,-0.01 0.04,-0.03 0.07,-0.05 0.05,-0.04 0.07,-0.05 0.12,-0.08 0.03,-0.03 0.07,-0.05 0.12,-0.09 0.05,-0.03 0.08,-0.04 0.09,-0.11l-0.17 -0.13c-0.07,-0.03 -0.29,-0.16 -0.32,-0.23 -0.05,-0.01 -0.02,0.04 -0.05,-0.03 -0.09,-0.02 -0.17,-0.1 -0.26,-0.16 -0.07,-0.05 -0.18,-0.11 -0.24,-0.17l-0.05 0c-0.04,0.08 -0.03,0.25 -0.02,0.37z"/>
   <path class="fil0" d="M6.72 1.37c-0.02,0.07 -0.03,0.05 -0.07,0.11 -0.06,0.1 -0.13,0.17 -0.19,0.27 0,0 0.01,0.01 0.01,0.01 0,0 0.01,0.01 0.01,0.01l0.04 0.05c0.08,0.04 0.13,0.09 0.19,0.14 0.05,0.03 0.08,0.08 0.12,0.11 0.04,0.04 0.08,0.07 0.1,0.11l0.1 0.08c0.03,0.03 0.04,0.05 0.06,0.09 0.05,0.05 0.14,0.15 0.16,0.22l0.03 0.03c0,0 0.01,0.01 0.01,0.01 0.11,0.12 0.35,0.58 0.39,0.72l0.13 0.34c0.06,0.25 0.12,0.46 0.14,0.74l0.01 0.37c-0,0.11 0.02,0.35 -0.05,0.43 0.01,0.12 -0.1,0.57 -0.15,0.67 -0.03,0.1 -0.1,0.3 -0.15,0.37 -0.03,0.07 -0.1,0.25 -0.15,0.28l-0.05 0.09c-0.11,0.21 -0.45,0.63 -0.61,0.74l-0.11 0.09c-0.04,0.08 -0.25,0.22 -0.33,0.27 -0.09,0.06 -0.29,0.2 -0.4,0.23 -0.16,0.1 -0.54,0.25 -0.76,0.28 -0.08,0.04 -0.2,0.07 -0.29,0.06 -0.05,0.04 -0.14,0.04 -0.2,0.04 -0.08,0.01 -0.15,0.01 -0.22,0.02l-0.18 0 0 -0.27 -0.01 -0.14c-0.08,-0.01 -0.11,0.03 -0.18,0.07 -0.01,0.01 0,0 -0.02,0.03 -0,0 -0.03,0.02 -0.03,0.02 -0.03,0.02 -0.04,0.02 -0.07,0.03l-0.24 0.17c-0.07,0.05 -0.22,0.17 -0.3,0.19 -0.01,0.02 -0.01,0.01 -0.03,0.03 -0.01,0.01 -0.02,0.02 -0.03,0.03 -0.31,0.24 -0.22,0.12 -0.05,0.3 0.05,0.02 0.02,-0.01 0.05,0.05 0.07,0.01 0.32,0.19 0.34,0.23 0.06,0.02 0.04,0.01 0.09,0.05l0.06 0.05c0,0 0.01,0.01 0.01,0.01 0.05,0.02 0.19,0.11 0.21,0.14 0.06,0.02 0.04,0.03 0.09,0.05 0.08,0.04 0.1,-0 0.1,-0.08 0,-0.03 -0,-0.08 -0,-0.11l0 -0.2 0.18 -0.01 0.39 -0.03 0.36 -0.06c0.1,-0.04 0.25,-0.07 0.37,-0.1 0.13,-0.04 0.25,-0.1 0.38,-0.13l0.35 -0.17 0.09 -0.05c0.02,-0.02 0.24,-0.16 0.28,-0.18 0.06,-0.06 0.19,-0.14 0.27,-0.21l0.74 -0.72c0.01,-0.05 -0,-0.03 0.03,-0.07 0.02,-0.03 0.03,-0.03 0.05,-0.04 0.02,-0.05 0.12,-0.22 0.18,-0.25 0.01,-0.07 0.05,-0.11 0.09,-0.18 0.03,-0.05 0.06,-0.11 0.09,-0.17 0.05,-0.09 0.12,-0.3 0.17,-0.36l0.11 -0.33c0.01,-0.02 0.01,-0.04 0.02,-0.06 0.02,-0.05 0,-0.01 0.02,-0.04 -0.01,-0.11 0.05,-0.24 0.07,-0.35 0.02,-0.11 0.04,-0.23 0.05,-0.35l0.02 -0.36c0,-0.1 -0.01,-0.22 0.01,-0.32l-0.06 -0.44c-0.02,-0.11 -0.04,-0.24 -0.07,-0.35 -0.03,-0.09 -0.09,-0.25 -0.09,-0.34 -0.05,-0.05 -0.15,-0.34 -0.17,-0.42l-0.03 -0.08c-0.05,-0.03 -0.13,-0.22 -0.16,-0.28 -0.03,-0.02 -0.2,-0.3 -0.24,-0.36 -0.05,-0.06 -0.08,-0.11 -0.14,-0.18 -0.05,-0.06 -0.11,-0.11 -0.12,-0.17 -0.05,-0.03 -0.06,-0.03 -0.09,-0.08 -0.07,-0.05 -0.23,-0.21 -0.29,-0.28 -0.06,-0.03 -0.06,-0.02 -0.09,-0.08 -0.07,-0.03 -0.15,-0.12 -0.23,-0.16l-0.06 0.07c-0.03,0.03 -0.01,0.03 -0.05,0.05z"/>
  </g>
 </g>
</svg>
