<svg id="Layer_1" data-name="Layer 1" xmlns="http://www.w3.org/2000/svg" viewBox="0 0 200 60"><defs><style>.cls-1{fill:#010002;}</style></defs><title>digipeta</title><g id="g4058"><path id="path3987-6" class="cls-1" d="M49.8,10.2a28,28,0,1,0,0,39.6A28,28,0,0,0,49.8,10.2Zm-4.41,4.41S41.07,26.1,37.73,32.33a7.9,7.9,0,0,1-1.9,3.16s-.14.1-.19.15-.1.14-.15.19a7.9,7.9,0,0,1-3.16,1.9c-6.23,3.34-17.72,7.66-17.72,7.66s4.32-11.49,7.66-17.72a7.9,7.9,0,0,1,1.9-3.16c0-.05.14-.1.19-.15s.1-.14.15-.19a7.9,7.9,0,0,1,3.16-1.9C33.9,18.93,45.39,14.61,45.39,14.61Z"/><circle id="path3978-2" cx="30" cy="30" r="5"/></g><path d="M79,43.12H75.42V39.65q-2.64,4-6,4a5,5,0,0,1-4.18-1.87,8.8,8.8,0,0,1-1.45-5.48V28.47a8.23,8.23,0,0,1,1.6-5.41A5.66,5.66,0,0,1,70,21.12a6.63,6.63,0,0,1,2.69.64,13.5,13.5,0,0,1,2.59,1.56V13.07H79ZM68.36,25.59A5.53,5.53,0,0,0,67.5,29v6.82q0,4.49,2.77,4.49a4.21,4.21,0,0,0,2.62-1,9.76,9.76,0,0,0,2.35-2.92V26.67a7.43,7.43,0,0,0-2.18-1.59,5.19,5.19,0,0,0-2.26-.61A2.87,2.87,0,0,0,68.36,25.59Z"/><path d="M88.82,13.51a1.84,1.84,0,0,1,.63,1.5v1.27a1.79,1.79,0,0,1-.63,1.48,3,3,0,0,1-1.83.5,2.83,2.83,0,0,1-1.78-.5,1.77,1.77,0,0,1-.64-1.48V15a1.82,1.82,0,0,1,.64-1.5A2.72,2.72,0,0,1,87,13,2.83,2.83,0,0,1,88.82,13.51Zm.06,8.14V43.12H85.14V21.65Z"/><path d="M105.6,21.69l6.87-.08v3.3l-3.61-.09a7.65,7.65,0,0,1,.75,3.3v1a7,7,0,0,1-2,5.17,7.57,7.57,0,0,1-5.55,2,13,13,0,0,1-3.74-.44,2.33,2.33,0,0,0-1,1.81v.26a1.23,1.23,0,0,0,.44,1,3.46,3.46,0,0,0,1.72.41l6.56.49a4.87,4.87,0,0,1,3.27,1.52,4.7,4.7,0,0,1,1.26,3.36v1.63a5.69,5.69,0,0,1-.75,3.08,4.75,4.75,0,0,1-2.75,1.8,22.74,22.74,0,0,1-9.06.31,31.3,31.3,0,0,1-3.63-.79l.13-3.48a22.68,22.68,0,0,0,7,1.37,16.11,16.11,0,0,0,3.54-.29,2.42,2.42,0,0,0,1.54-.86,3.14,3.14,0,0,0,.38-1.71v-.35a2,2,0,0,0-2.12-2.2l-6.6-.44A5,5,0,0,1,95,41.54a3.8,3.8,0,0,1-1.1-2.86V37.8a3.83,3.83,0,0,1,.51-1.89,5,5,0,0,1,1.47-1.63,5,5,0,0,1-1.08-2.14A13,13,0,0,1,94.51,29V28a6.64,6.64,0,0,1,1.94-5,7.82,7.82,0,0,1,5.63-1.87A10.31,10.31,0,0,1,105.6,21.69Zm-6.36,3.5a3.58,3.58,0,0,0-1,2.71v1.45a7.37,7.37,0,0,0,.29,2.4,1.73,1.73,0,0,0,1,1,6.43,6.43,0,0,0,2.25.29,4.2,4.2,0,0,0,3-1,3.63,3.63,0,0,0,1-2.77V28a8.92,8.92,0,0,0-.53-3.21,7.55,7.55,0,0,0-1.43-.4,10.13,10.13,0,0,0-1.83-.17A4,4,0,0,0,99.24,25.19Z"/><path d="M119.66,13.51a1.85,1.85,0,0,1,.64,1.5v1.27a1.79,1.79,0,0,1-.64,1.48,2.93,2.93,0,0,1-1.83.5,2.85,2.85,0,0,1-1.78-.5,1.79,1.79,0,0,1-.64-1.48V15a1.85,1.85,0,0,1,.64-1.5,2.74,2.74,0,0,1,1.78-.53A2.81,2.81,0,0,1,119.66,13.51Zm.07,8.14V43.12H116V21.65Z"/><path d="M139.53,23a8.48,8.48,0,0,1,1.54,5.45V36.3a7.69,7.69,0,0,1-1.79,5.39,6.15,6.15,0,0,1-4.81,2,7.27,7.27,0,0,1-2.45-.46,15.87,15.87,0,0,1-2.39-1.08v9.15h-3.74V21.65h3.52v3.12q2.42-3.64,5.8-3.65A5.25,5.25,0,0,1,139.53,23Zm-7.64,2.39A8.44,8.44,0,0,0,129.63,28V38.77a7.1,7.1,0,0,0,2,1.16,5.9,5.9,0,0,0,2.05.42c2.4,0,3.61-1.52,3.61-4.58V29c0-3-1-4.53-2.86-4.53A4.37,4.37,0,0,0,131.89,25.41Z"/><path d="M159.46,23.15A8.14,8.14,0,0,1,161.39,29v4.53H150.08v2.6a4.21,4.21,0,0,0,1.08,3.23,4.94,4.94,0,0,0,3.41,1,29.32,29.32,0,0,0,5.72-.7l.09,3.25a37.39,37.39,0,0,1-5.85.75c-2.91,0-5-.63-6.27-1.89s-1.92-3.21-1.92-5.85V29a8.35,8.35,0,0,1,1.87-5.85,7.29,7.29,0,0,1,5.62-2A7.43,7.43,0,0,1,159.46,23.15Zm-8.36,2.18a4.32,4.32,0,0,0-1,3.1v2.11h7.57v-2a4.5,4.5,0,0,0-1-3.21,3.62,3.62,0,0,0-2.79-1.1A3.55,3.55,0,0,0,151.1,25.33Z"/><path d="M170.85,21.65h5.72v3.08h-5.72V37.31a3.41,3.41,0,0,0,.69,2.4,2.76,2.76,0,0,0,2.13.73,15.05,15.05,0,0,0,3.61-.44l.09,3.12a13.69,13.69,0,0,1-3.53.53q-3.51,0-5.12-1.56c-1.07-1-1.61-2.74-1.61-5.08V24.73H164V21.65h3.08l.71-5.72h3Z"/><path d="M193.4,22.82c1.16,1.13,1.74,2.92,1.74,5.39V43.12h-3.56V39.69c-1.7,2.64-3.63,4-5.77,4a5.11,5.11,0,0,1-4.07-1.76,7.1,7.1,0,0,1-1.51-4.8V35.86a5.84,5.84,0,0,1,1.8-4.38,6.7,6.7,0,0,1,4.84-1.73,24.65,24.65,0,0,1,4.53.57V27.9a3.66,3.66,0,0,0-.86-2.73,3.67,3.67,0,0,0-2.66-.84,37.7,37.7,0,0,0-5.94.67V21.78a43.17,43.17,0,0,1,5.94-.66Q191.66,21.12,193.4,22.82ZM185,33.62a3.66,3.66,0,0,0-1,2.73v.48a3.91,3.91,0,0,0,.75,2.55,2.33,2.33,0,0,0,1.89.93,3.9,3.9,0,0,0,2.44-1,10,10,0,0,0,2.31-2.92V33a19.5,19.5,0,0,0-3.61-.31A3.78,3.78,0,0,0,185,33.62Z"/></svg>