<svg xmlns="http://www.w3.org/2000/svg" width="80" height="58" fill="none"  xmlns:v="https://vecta.io/nano"><path d="M3.488 57.812H.365l2.878-8.855H7l2.878 8.855H6.683l-1.195-5.074-.366-1.513h-.049l-.342 1.513-1.244 5.074zm4.171-1.683h-5.05v-1.951h5.05v1.951zm2.61-7.709h3.074v6.708c0 .268.049.464.122.586s.22.195.439.195c.098 0 .195 0 .268-.024s.146-.024.22-.049l-.122 1.659c-.171.122-.415.22-.732.317-.317.073-.634.122-.927.122-.829 0-1.415-.171-1.781-.537s-.537-.951-.537-1.805V48.42h-.024zm4.562 0h3.098v6.708c0 .268.049.464.122.586s.22.195.439.195c.098 0 .195 0 .268-.024s.146-.024.22-.049l-.122 1.659c-.171.122-.415.22-.732.317-.317.073-.634.122-.927.122-.829 0-1.415-.171-1.781-.537s-.537-.951-.537-1.805V48.42h-.049zm6.123 6.635c.537 0 .927.122 1.22.366s.439.61.439 1.049c0 .463-.146.805-.439 1.049s-.683.366-1.22.366c-.512 0-.927-.122-1.22-.366s-.439-.61-.439-1.049c0-.464.146-.805.439-1.049s.683-.366 1.22-.366zm2.708-6.099h4.806c1.146 0 2.049.268 2.659.781s.927 1.195.927 2.049c0 .976-.293 1.708-.903 2.195s-1.488.732-2.635.732l-.317.171h-1.464v2.927h-3.074v-8.855zm3.074 3.879h1.195c.341 0 .585-.049.756-.171s.244-.342.244-.634-.073-.512-.244-.634-.415-.195-.756-.195h-1.195v1.634zm.342 1.098l2.683-.463 2.757 4.342H29.15l-2.073-3.879zm9.489 4.025c-.805 0-1.488-.146-2.073-.415-.561-.268-1-.659-1.317-1.195-.293-.512-.464-1.147-.464-1.878s.146-1.366.464-1.878.732-.927 1.293-1.195 1.22-.415 1.952-.415c.756 0 1.415.146 1.927.415.537.268.927.659 1.22 1.147.268.488.415 1.073.415 1.708 0 .146 0 .293-.024.439l-.049.366h-5.196v-1.147h3.879l-1.464.585c0-.488-.049-.854-.122-1.098s-.268-.366-.561-.366a.87.87 0 0 0-.463.122c-.122.098-.195.244-.268.463s-.073.512-.073.903.024.683.098.878.171.342.317.39.317.098.537.098c.244 0 .415-.049.537-.146a.82.82 0 0 0 .268-.415l2.488.659c-.098.439-.317.805-.659 1.098s-.756.512-1.22.659a4.79 4.79 0 0 1-1.439.22zm7.611-2.098l.878-4.757h3.196l-2.147 6.708h-3.854l-2.171-6.708h3.22l.878 4.757zm6.001-5.172c-.61 0-1.049-.098-1.293-.293s-.39-.537-.39-1 .122-.805.39-1c.244-.195.683-.293 1.293-.293s1.049.098 1.293.293.39.537.39 1-.122.805-.39 1c-.244.195-.683.293-1.293.293zm-1.537.415h3.074v6.708h-3.074v-6.708zm7.708 6.855c-.805 0-1.488-.146-2.073-.415-.561-.268-1-.659-1.317-1.195-.293-.512-.464-1.147-.464-1.878s.146-1.366.464-1.878.732-.927 1.293-1.195 1.22-.415 1.952-.415c.756 0 1.415.146 1.927.415.537.268.927.659 1.22 1.147.268.488.415 1.073.415 1.708 0 .146 0 .293-.024.439l-.049.366H54.52v-1.147h3.879l-1.464.585c0-.488-.049-.854-.122-1.098s-.268-.366-.561-.366c-.195 0-.341.049-.463.122-.122.098-.22.244-.268.463s-.073.512-.073.903.024.683.097.878.171.342.317.39c.146.073.317.098.537.098.244 0 .415-.049.537-.146s.22-.244.268-.415l2.488.659c-.098.439-.317.805-.659 1.098s-.732.512-1.22.659c-.463.146-.951.22-1.464.22zm12.49-2.244l.756-4.61h3.196l-1.83 6.708h-3.83l-.781-3.293-.781 3.293h-3.83l-1.83-6.708h3.196l.756 4.61.976-4.61h3.025l.976 4.61zm7.44 2.244c-.659 0-1.293-.098-1.878-.268a4.43 4.43 0 0 1-1.586-.805l1.098-1.586c.244.22.561.415.951.561.39.171.781.244 1.171.244.146 0 .293-.024.415-.049s.171-.098.171-.195c0-.073-.024-.122-.098-.171-.073-.024-.219-.073-.439-.098l-.488-.098c-.976-.195-1.659-.463-2.073-.805-.39-.342-.61-.829-.61-1.415 0-.366.122-.732.366-1.073s.61-.634 1.122-.878 1.195-.342 2.049-.342c.707 0 1.317.098 1.878.268s1 .415 1.342.707l-1.049 1.537c-.244-.195-.561-.366-.951-.464a3.62 3.62 0 0 0-1.073-.171c-.146 0-.268 0-.341.024-.098.024-.146.049-.195.073s-.049.073-.049.122c0 .073.049.122.146.171s.268.098.512.146l.951.171c.732.122 1.244.342 1.586.708.341.341.512.781.512 1.293a2.17 2.17 0 0 1-.366 1.22c-.244.366-.61.659-1.122.903-.463.146-1.122.268-1.951.268z" fill="#ff0404"/><g stroke="#f80606" stroke-width=".987" stroke-miterlimit="9.8741"><path d="M57.819 1.614h-33.97c-3.993 0-8.17 1.843-8.17 5.221v18.552c0 3.379 4.177 7.187 8.17 7.187h21.684l7.249 4.361s4.116 2.887 4.116-1.29v-3.133h.921c3.993 0 6.389-3.809 6.389-7.187V6.774c0-3.317-2.334-5.16-6.389-5.16z"/><path d="M55.853 38.103c-1.352 0-2.887-.983-3.01-1.044l-7.372-4.484H23.849c-4.116 0-8.17-3.563-8.17-7.187V6.836c0-3.44 3.747-5.836 8.17-5.836h33.97c4.239 0 7.003 2.273 7.003 5.836v18.552c0 3.747-3.01 6.88-7.249 6.88v3.44c-.061 2.089-1.044 2.396-1.72 2.396zM23.849 1.614c-3.993 0-7.556 2.15-7.556 5.221v18.552c0 3.317 3.747 6.573 7.556 6.573h21.807l7.617 4.607s1.413 1.044 2.58 1.044c.491 0 1.044-.246 1.044-1.904V31.96h.921c3.993 0 6.389-3.563 6.389-6.573V6.836c0-3.194-2.519-5.221-6.389-5.221h-33.97 0z"/></g><g fill="#f80606"><path d="M31.282 15.128c0-.491-.369-.921-.86-.983l-2.089-.307-.922-1.904c-.123-.369-.491-.614-.921-.614a1 1 0 0 0-.921.676l-.921 1.843-2.089.246c-.491.062-.921.492-.921.983 0 .307.184.614.43.799l1.413 1.474-.369 1.904c-.061.123-.061.246-.061.369a.97.97 0 0 0 .983.983 1.16 1.16 0 0 0 .491-.123l1.904-.921 1.781.921c.184.123.369.184.553.184a.97.97 0 0 0 .983-.983v-.061l-.369-2.15 1.474-1.474c.307-.246.43-.553.43-.86z"/><path d="M28.824 20.964a1.18 1.18 0 0 1-.737-.246l-1.659-.799-1.72.86c-.184.123-.43.184-.614.184a1.26 1.26 0 0 1-1.29-1.29c0-.123 0-.246.061-.369l.307-1.781-1.351-1.352c-.307-.246-.491-.614-.491-.983 0-.553.369-1.044.921-1.229l2.15-.307.799-1.659c.184-.491.676-.86 1.229-.86s1.044.307 1.229.86l.86 1.72 2.027.307c.614.123 1.044.676 1.044 1.29 0 .307-.123.614-.369.86l-1.474 1.474.369 2.15c0 .614-.553 1.167-1.29 1.167zm-2.334-1.72l1.966.983c.553.369 1.106 0 1.106-.553v-.123l-.369-2.211 1.413-1.413.184-.184c.123-.123.246-.307.246-.553 0-.369-.246-.614-.553-.676h-.061l-2.212-.307-.983-2.027c-.123-.307-.369-.491-.676-.491s-.553.184-.676.491l-.983 2.027-2.273.307c-.369.061-.614.307-.614.676 0 .246.123.43.307.553l1.597 1.597-.307 1.781h.061l-.123.307c0 .061-.061.184-.061.246a.68.68 0 0 0 .676.676c.123 0 .246-.061.369-.123l1.966-.983zm30.592 1.72a1.18 1.18 0 0 1-.737-.246l-1.659-.799-1.72.86c-.184.123-.43.184-.614.184a1.26 1.26 0 0 1-1.29-1.29c0-.123 0-.246.061-.369l.307-1.781-1.351-1.352c-.307-.246-.491-.614-.491-.983 0-.553.369-1.044.921-1.229l2.15-.307.799-1.659c.184-.491.676-.86 1.229-.86s1.044.307 1.229.86l.86 1.72 2.027.307c.614.123.983.676.983 1.29 0 .307-.123.614-.368.86l-1.474 1.474.368 2.15c.062.614-.553 1.167-1.229 1.167zm-2.396-1.72l1.966.983c.553.369 1.106 0 1.106-.553v-.123l-.43-2.273 1.413-1.413.184-.184c.123-.123.246-.307.246-.553 0-.369-.246-.614-.553-.676h-.062l-2.211-.307-.983-2.027c-.123-.307-.369-.491-.676-.491s-.553.184-.676.491l-.983 2.027-2.273.307c-.369.061-.614.307-.614.676 0 .246.123.43.307.553l1.597 1.597-.307 1.781h.061l-.123.307c0 .061-.061.184-.061.246a.68.68 0 0 0 .676.676c.123 0 .246 0 .369-.123l2.027-.921zm-14.128-7.863v8.232l-1.904.921a1.16 1.16 0 0 1-.492.123.97.97 0 0 1-.983-.983c0-.123 0-.246.061-.369l.369-1.904-1.413-1.474c-.246-.184-.43-.491-.43-.799 0-.491.369-.921.922-.983l2.088-.246.922-1.843c.061-.43.43-.676.86-.676z"/><path d="M42.953 20.965a1.18 1.18 0 0 1-.737-.246l-1.659-.799-1.781.86c-.184.123-.43.184-.614.184-.737 0-1.29-.553-1.29-1.29 0-.123 0-.307.061-.43l.307-1.72-1.351-1.351c-.307-.246-.491-.614-.491-.983 0-.676.491-1.229 1.167-1.29l1.904-.246.799-1.72c.184-.491.676-.86 1.229-.86s1.044.307 1.229.86l.86 1.72 1.966.246c.614.123 1.106.614 1.106 1.29 0 .307-.123.614-.369.86l-.061.123-1.351 1.351.369 2.15c0 .737-.614 1.29-1.29 1.29zm-2.396-1.72l.123.061 1.781.921c.614.369 1.106 0 1.106-.553v-.061l-.43-2.273 1.597-1.597c.184-.123.246-.307.246-.553 0-.369-.246-.614-.553-.676l-2.273-.307-.983-2.027c-.123-.307-.369-.491-.676-.491s-.553.184-.676.491l-.983 2.027-2.212.307c-.368.062-.614.369-.614.676 0 .246.123.43.307.553l1.597 1.597-.369 2.089c-.061.123-.061.184-.061.307a.68.68 0 0 0 .676.676c.184 0 .307-.061.369-.123l2.027-1.044z"/><path d="M40.251 19.613v-8.477h.614v8.416l-.614.061z"/></g></svg>