<?xml version="1.0" encoding="UTF-8"?>
<!DOCTYPE svg PUBLIC "-//W3C//DTD SVG 1.1//EN" "http://www.w3.org/Graphics/SVG/1.1/DTD/svg11.dtd">
<!-- Creator: CorelDRAW 2021 (64-Bit) -->
<svg xmlns="http://www.w3.org/2000/svg" xml:space="preserve" width="10.4593mm" height="10.467mm" version="1.1" style="shape-rendering:geometricPrecision; text-rendering:geometricPrecision; image-rendering:optimizeQuality; fill-rule:evenodd; clip-rule:evenodd"
viewBox="0 0 9.6 9.6"
 xmlns:xlink="http://www.w3.org/1999/xlink"
 xmlns:xodm="http://www.corel.com/coreldraw/odm/2003">
 <defs>
  <style type="text/css">
   <![CDATA[
    .fil0 {fill:#2eca8b}
   ]]>
  </style>
 </defs>
 <g id="Layer_x0020_1">
  <metadata id="CorelCorpID_0Corel-Layer"/>
  <path class="fil0" d="M5.86 9.08c0.19,-0.28 0.26,-0.25 0.51,-0.77 0.22,-0.44 0.28,-0.71 0.38,-0.9 0.29,0.07 0.9,0.33 1.17,0.48 -0.03,0.1 -0.12,0.13 -0.19,0.2 -0.38,0.36 -0.77,0.58 -1.25,0.79 -0.12,0.06 -0.5,0.19 -0.62,0.2zm-4.19 -1.19c0.27,-0.14 0.88,-0.41 1.17,-0.48 0.06,0.26 0.25,0.68 0.37,0.91 0.07,0.15 0.14,0.26 0.23,0.4 0.14,0.21 0.25,0.31 0.29,0.36 -0.64,-0.15 -1.14,-0.42 -1.64,-0.79 -0.08,-0.06 -0.15,-0.12 -0.22,-0.19 -0.05,-0.05 -0.05,-0.05 -0.11,-0.09 -0.02,-0.02 -0.04,-0.03 -0.06,-0.05 -0.05,-0.06 -0.02,-0.03 -0.04,-0.07zm1.56 -0.59c0.08,-0.01 0.21,-0.04 0.29,-0.06 0.11,-0.02 0.2,-0.04 0.32,-0.05 0.29,-0.04 0.45,-0.06 0.76,-0.06l0 2.06c-0.63,-0.15 -1.05,-1.02 -1.27,-1.58 -0.04,-0.1 -0.09,-0.21 -0.1,-0.31zm1.76 1.87l0 -2.04c0.53,0 0.91,0.07 1.37,0.17 -0.04,0.08 -0.06,0.19 -0.1,0.29l-0.25 0.56c-0.18,0.34 -0.62,0.99 -1.02,1.02zm1.48 -2.26l-1.48 -0.2 0 -1.72 1.72 0c0,0.71 -0.1,1.32 -0.24,1.91zm-6.08 -1.91l2.08 0c0,0.76 0.12,1.42 0.26,2.04 -0.3,0.01 -1.25,0.52 -1.35,0.54 -0.19,-0.12 -0.57,-0.85 -0.67,-1.11 -0.08,-0.21 -0.17,-0.44 -0.22,-0.67 -0.05,-0.23 -0.11,-0.53 -0.11,-0.8zm2.48 0l1.74 0 0 1.72 -0.78 0.07c-0.11,0.01 -0.24,0.04 -0.35,0.06 -0.12,0.02 -0.24,0.07 -0.37,0.07l-0.09 -0.44c-0.08,-0.39 -0.12,-0.81 -0.13,-1.21 -0,-0.11 -0.02,-0.13 -0.02,-0.26zm5.34 2.58l-0.65 -0.3c-0.11,-0.05 -0.22,-0.09 -0.34,-0.13 -0.09,-0.04 -0.26,-0.08 -0.35,-0.13 0,-0.08 0.02,-0.14 0.04,-0.2 0.14,-0.63 0.2,-1.14 0.2,-1.82l2.11 0c0,0.22 -0.06,0.6 -0.11,0.78 -0.12,0.49 -0.25,0.84 -0.51,1.27 -0.07,0.12 -0.29,0.47 -0.38,0.53zm-3.21 -4.71c0.36,0 0.49,-0.01 0.83,-0.06l0.65 -0.11c0.13,0.57 0.24,1.21 0.24,1.91l-1.72 0 0 -1.74zm-1.89 -0.17c0.16,0 0.76,0.17 1.5,0.17l0 1.74 -1.74 0 0.08 -0.99c0.02,-0.17 0.04,-0.32 0.07,-0.47 0.02,-0.08 0.03,-0.15 0.04,-0.22 0.02,-0.09 0.04,-0.15 0.05,-0.24zm3.76 -0.13c0.2,-0.02 0.81,-0.28 1.02,-0.39 0.08,-0.04 0.24,-0.13 0.33,-0.15 0.07,0.05 0.32,0.41 0.38,0.51 0.11,0.21 0.2,0.37 0.3,0.59 0.09,0.21 0.16,0.45 0.21,0.68 0.05,0.2 0.11,0.57 0.11,0.8l-2.11 0c0,-0.47 -0.02,-0.71 -0.08,-1.16l-0.16 -0.88zm-4.39 1.98l0 0.07 -2.08 0c0,-0.66 0.28,-1.49 0.62,-2.05 0.07,-0.12 0.29,-0.47 0.38,-0.53 0.09,0.02 0.22,0.1 0.31,0.14 0.12,0.06 0.2,0.1 0.33,0.15 0.13,0.06 0.58,0.24 0.71,0.25l-0.18 0.93c-0.04,0.31 -0.08,0.69 -0.08,1.05zm2.52 -2.06l0 -2.04c0.45,0.04 0.96,0.84 1.14,1.27l0.23 0.6c-0.32,0.03 -0.6,0.17 -1.37,0.17zm-0.39 -2.06l0 2.06c-0.49,0 -0.97,-0.08 -1.37,-0.17 0.01,-0.12 0.17,-0.47 0.21,-0.59 0.17,-0.41 0.57,-1.05 1,-1.24 0.05,-0.02 0.11,-0.04 0.16,-0.06zm1.26 0.11c0.08,0.01 0.24,0.06 0.31,0.08 0.52,0.17 0.89,0.38 1.33,0.71 0.09,0.07 0.4,0.31 0.42,0.4 -0.09,0.02 -0.71,0.37 -1.19,0.48 -0.02,-0.2 -0.26,-0.71 -0.35,-0.9 -0.25,-0.51 -0.32,-0.48 -0.51,-0.77zm-3.02 1.67c-0.05,-0.03 -0.08,-0.03 -0.15,-0.05 -0.06,-0.02 -0.11,-0.04 -0.16,-0.06 -0.11,-0.04 -0.19,-0.07 -0.3,-0.11l-0.57 -0.26c0.03,-0.1 0.12,-0.13 0.19,-0.2 0.18,-0.18 0.5,-0.4 0.71,-0.53 0.33,-0.2 0.74,-0.37 1.16,-0.47l-0.28 0.35c-0.15,0.21 -0.34,0.59 -0.44,0.84 -0.06,0.14 -0.13,0.32 -0.17,0.48zm-2.84 2.39c0,1.15 0.13,1.69 0.64,2.63 0.14,0.25 0.4,0.61 0.61,0.82 0.06,0.06 0.08,0.11 0.14,0.16l0.3 0.27c0.47,0.36 0.5,0.4 1.04,0.67 1.2,0.61 2.91,0.61 4.11,0.01 0.41,-0.2 0.87,-0.48 1.19,-0.81 0.03,-0.03 0.05,-0.05 0.08,-0.07l0.35 -0.37c0.08,-0.11 0.17,-0.2 0.25,-0.32 0.49,-0.71 0.88,-1.64 0.88,-2.57 0,-0.6 0.01,-0.81 -0.14,-1.42 -0.04,-0.15 -0.08,-0.3 -0.13,-0.43 -0.15,-0.38 -0.18,-0.43 -0.37,-0.78 -0.13,-0.23 -0.42,-0.64 -0.61,-0.82 -0.07,-0.06 -0.08,-0.1 -0.14,-0.16l-0.3 -0.27c-0.47,-0.36 -0.5,-0.4 -1.04,-0.67 -1.2,-0.61 -2.9,-0.62 -4.11,-0.01 -0.14,0.07 -0.24,0.12 -0.37,0.2 -0.13,0.07 -0.24,0.15 -0.36,0.23l-0.63 0.52 -0.51 0.62c-0.49,0.71 -0.88,1.64 -0.88,2.57z"/>
 </g>
</svg>
